<svg width="123" height="23" viewBox="0 0 123 23" fill="none" xmlns="http://www.w3.org/2000/svg">
<path d="M7.826 20.812C6.56067 20.812 5.434 20.526 4.446 19.954C3.458 19.3647 2.678 18.5587 2.106 17.536C1.55133 16.5133 1.274 15.326 1.274 13.974C1.274 12.6047 1.55133 11.4087 2.106 10.386C2.678 9.346 3.458 8.54 4.446 7.968C5.434 7.37867 6.56067 7.084 7.826 7.084C9.42067 7.084 10.7553 7.5 11.83 8.332C12.9047 9.164 13.5893 10.2907 13.884 11.712H11.18C11.0067 10.9493 10.608 10.36 9.984 9.944C9.37733 9.528 8.64933 9.32 7.8 9.32C7.10667 9.32 6.46533 9.502 5.876 9.866C5.28667 10.2127 4.81 10.7327 4.446 11.426C4.09933 12.102 3.926 12.9427 3.926 13.948C3.926 14.6933 4.03 15.3607 4.238 15.95C4.446 16.522 4.72333 17.0073 5.07 17.406C5.434 17.8047 5.85 18.108 6.318 18.316C6.786 18.5067 7.28 18.602 7.8 18.602C8.372 18.602 8.88333 18.5153 9.334 18.342C9.802 18.1513 10.192 17.874 10.504 17.51C10.8333 17.146 11.0587 16.7127 11.18 16.21H13.884C13.5893 17.5967 12.9047 18.7147 11.83 19.564C10.7553 20.396 9.42067 20.812 7.826 20.812ZM16.9262 20.5V7.396H19.2662L19.5002 9.866C19.7949 9.27667 20.1762 8.78267 20.6442 8.384C21.1122 7.968 21.6582 7.64733 22.2822 7.422C22.9235 7.19667 23.6515 7.084 24.4662 7.084V9.84H23.5302C22.9929 9.84 22.4815 9.90933 21.9962 10.048C21.5109 10.1693 21.0775 10.386 20.6962 10.698C20.3322 11.01 20.0462 11.4347 19.8382 11.972C19.6302 12.5093 19.5262 13.1767 19.5262 13.974V20.5H16.9262ZM32.4011 20.812C31.1531 20.812 30.0437 20.526 29.0731 19.954C28.1024 19.382 27.3397 18.5847 26.7851 17.562C26.2477 16.5393 25.9791 15.352 25.9791 14C25.9791 12.6133 26.2477 11.4087 26.7851 10.386C27.3397 9.346 28.1024 8.54 29.0731 7.968C30.0437 7.37867 31.1704 7.084 32.4531 7.084C33.7357 7.084 34.8364 7.37 35.7551 7.942C36.6737 8.514 37.3844 9.27667 37.8871 10.23C38.3897 11.166 38.6411 12.206 38.6411 13.35C38.6411 13.5233 38.6324 13.714 38.6151 13.922C38.6151 14.1127 38.6064 14.3293 38.5891 14.572H27.8771V12.726H36.0411C35.9891 11.634 35.6251 10.7847 34.9491 10.178C34.2731 9.554 33.4324 9.242 32.4271 9.242C31.7164 9.242 31.0664 9.40667 30.4771 9.736C29.8877 10.048 29.4111 10.516 29.0471 11.14C28.7004 11.7467 28.5271 12.518 28.5271 13.454V14.182C28.5271 15.1527 28.7004 15.976 29.0471 16.652C29.4111 17.3107 29.8877 17.8133 30.4771 18.16C31.0664 18.4893 31.7077 18.654 32.4011 18.654C33.2331 18.654 33.9177 18.472 34.4551 18.108C34.9924 17.744 35.3911 17.25 35.6511 16.626H38.2511C38.0257 17.4233 37.6444 18.1427 37.1071 18.784C36.5697 19.408 35.9024 19.902 35.1051 20.266C34.3251 20.63 33.4237 20.812 32.4011 20.812Z" fill="#33363A"/>
<path d="M46.4305 20.6362C46.0979 21.4812 44.9021 21.4812 44.5695 20.6362L39.5426 7.86629C39.2844 7.21018 39.768 6.5 40.4731 6.5H50.5269C51.232 6.5 51.7156 7.21017 51.4574 7.86629L46.4305 20.6362Z" fill="#4361EE"/>
<path d="M53.9387 20.4452C53.6177 21.3187 52.3823 21.3187 52.0613 20.4452L47.4319 7.84487C47.1921 7.19215 47.6752 6.5 48.3706 6.5H57.6294C58.3248 6.5 58.8079 7.19215 58.5681 7.84486L53.9387 20.4452Z" fill="#4361EE"/>
<path d="M60.768 20.5V7.396H63.108L63.29 9.242C63.706 8.566 64.2607 8.03733 64.954 7.656C65.6473 7.27467 66.4273 7.084 67.294 7.084C67.9527 7.084 68.5507 7.17933 69.088 7.37C69.6253 7.54333 70.102 7.812 70.518 8.176C70.934 8.54 71.272 8.99067 71.532 9.528C72 8.76533 72.624 8.16733 73.404 7.734C74.2013 7.30067 75.042 7.084 75.926 7.084C76.9833 7.084 77.8933 7.30067 78.656 7.734C79.4187 8.15 79.9993 8.78267 80.398 9.632C80.7967 10.464 80.996 11.504 80.996 12.752V20.5H78.422V13.012C78.422 11.7987 78.1707 10.88 77.668 10.256C77.1827 9.632 76.4633 9.32 75.51 9.32C74.8687 9.32 74.2967 9.48467 73.794 9.814C73.2913 10.1433 72.8927 10.62 72.598 11.244C72.3207 11.868 72.182 12.6307 72.182 13.532V20.5H69.582V13.012C69.582 11.7987 69.3307 10.88 68.828 10.256C68.3427 9.632 67.6233 9.32 66.67 9.32C66.0633 9.32 65.5087 9.48467 65.006 9.814C64.5033 10.1433 64.1047 10.62 63.81 11.244C63.5153 11.868 63.368 12.6307 63.368 13.532V20.5H60.768ZM88.6979 20.812C87.6232 20.812 86.7306 20.63 86.0199 20.266C85.3092 19.902 84.7806 19.4167 84.4339 18.81C84.0872 18.186 83.9139 17.5187 83.9139 16.808C83.9139 15.9413 84.1392 15.2047 84.5899 14.598C85.0406 13.974 85.6819 13.4973 86.5139 13.168C87.3459 12.8387 88.3426 12.674 89.5039 12.674H92.9099C92.9099 11.9113 92.7972 11.2787 92.5719 10.776C92.3466 10.2733 92.0086 9.90067 91.5579 9.658C91.1246 9.398 90.5699 9.268 89.8939 9.268C89.1139 9.268 88.4466 9.45867 87.8919 9.84C87.3372 10.204 86.9906 10.75 86.8519 11.478H84.2519C84.3559 10.5593 84.6679 9.77933 85.1879 9.138C85.7252 8.47933 86.4099 7.97667 87.2419 7.63C88.0739 7.266 88.9579 7.084 89.8939 7.084C91.1246 7.084 92.1559 7.30067 92.9879 7.734C93.8199 8.16733 94.4439 8.78267 94.8599 9.58C95.2932 10.36 95.5099 11.296 95.5099 12.388V20.5H93.2479L93.0399 18.29C92.8492 18.6367 92.6239 18.966 92.3639 19.278C92.1039 19.59 91.7919 19.8587 91.4279 20.084C91.0812 20.3093 90.6739 20.4827 90.2059 20.604C89.7552 20.7427 89.2526 20.812 88.6979 20.812ZM89.1919 18.706C89.7466 18.706 90.2492 18.5933 90.6999 18.368C91.1506 18.1427 91.5319 17.8393 91.8439 17.458C92.1732 17.0593 92.4159 16.6173 92.5719 16.132C92.7452 15.6293 92.8406 15.118 92.8579 14.598V14.52H89.7639C89.0186 14.52 88.4119 14.6153 87.9439 14.806C87.4932 14.9793 87.1639 15.222 86.9559 15.534C86.7479 15.846 86.6439 16.21 86.6439 16.626C86.6439 17.0593 86.7392 17.432 86.9299 17.744C87.1379 18.0387 87.4326 18.2727 87.8139 18.446C88.1952 18.6193 88.6546 18.706 89.1919 18.706ZM103.957 20.5C103.125 20.5 102.406 20.37 101.799 20.11C101.193 19.85 100.725 19.4167 100.395 18.81C100.066 18.2033 99.9013 17.38 99.9013 16.34V9.606H97.6392V7.396H99.9013L100.213 4.12H102.501V7.396H106.219V9.606H102.501V16.366C102.501 17.1113 102.657 17.6227 102.969 17.9C103.281 18.16 103.819 18.29 104.581 18.29H106.089V20.5H103.957ZM114.659 20.812C113.411 20.812 112.302 20.526 111.331 19.954C110.36 19.382 109.598 18.5847 109.043 17.562C108.506 16.5393 108.237 15.352 108.237 14C108.237 12.6133 108.506 11.4087 109.043 10.386C109.598 9.346 110.36 8.54 111.331 7.968C112.302 7.37867 113.428 7.084 114.711 7.084C115.994 7.084 117.094 7.37 118.013 7.942C118.932 8.514 119.642 9.27667 120.145 10.23C120.648 11.166 120.899 12.206 120.899 13.35C120.899 13.5233 120.89 13.714 120.873 13.922C120.873 14.1127 120.864 14.3293 120.847 14.572H110.135V12.726H118.299C118.247 11.634 117.883 10.7847 117.207 10.178C116.531 9.554 115.69 9.242 114.685 9.242C113.974 9.242 113.324 9.40667 112.735 9.736C112.146 10.048 111.669 10.516 111.305 11.14C110.958 11.7467 110.785 12.518 110.785 13.454V14.182C110.785 15.1527 110.958 15.976 111.305 16.652C111.669 17.3107 112.146 17.8133 112.735 18.16C113.324 18.4893 113.966 18.654 114.659 18.654C115.491 18.654 116.176 18.472 116.713 18.108C117.25 17.744 117.649 17.25 117.909 16.626H120.509C120.284 17.4233 119.902 18.1427 119.365 18.784C118.828 19.408 118.16 19.902 117.363 20.266C116.583 20.63 115.682 20.812 114.659 20.812Z" fill="#33363A"/>
</svg>
